<?xml version="1.0" encoding="utf-8"?>
<!-- Generator: Adobe Illustrator 17.1.0, SVG Export Plug-In . SVG Version: 6.00 Build 0)  -->
<!DOCTYPE svg PUBLIC "-//W3C//DTD SVG 1.1//EN" "http://www.w3.org/Graphics/SVG/1.1/DTD/svg11.dtd">
<svg version="1.1" id="レイヤー_1" xmlns="http://www.w3.org/2000/svg" xmlns:xlink="http://www.w3.org/1999/xlink" x="0px"
	 y="0px" viewBox="0 0 100 100" enable-background="new 0 0 100 100" xml:space="preserve">
<circle fill="#D1D1D1" cx="50" cy="50" r="50"/>
<g>
	<path fill="#333333" d="M50,78.001c-14.888,0-27-12.112-27-27.001c0-14.888,12.112-27.001,27-27.001c14.89,0,27,12.113,27,27.001
		C77,65.889,64.89,78.001,50,78.001z M50,27.434c-12.994,0-23.567,10.571-23.567,23.566c0,12.995,10.573,23.567,23.567,23.567
		c12.997,0,23.569-10.572,23.569-23.567C73.569,38.004,62.997,27.434,50,27.434z"/>
</g>
<path fill="#333333" d="M53.494,36.186c-1.466-2.968-2.361-5.854-2.813-7.536v21.249c0.742,0.278,1.273,0.988,1.273,1.826
	c0,1.079-0.875,1.954-1.954,1.954c-1.08,0-1.954-0.875-1.954-1.954c0-0.879,0.584-1.613,1.382-1.86V28.628
	c-0.451,1.678-1.346,4.578-2.819,7.558c-2.296,4.645-5.159,8.743-5.159,8.743l1.831,25.053c0,0,1.74,1.942,6.767,1.944
	c0.002,0,0.002,0,0.004,0c0.001,0,0.001,0,0.003,0c5.027-0.002,6.767-1.944,6.767-1.944l1.831-25.053
	C58.653,44.929,55.79,40.831,53.494,36.186z"/>
</svg>
