<?xml version="1.0" encoding="utf-8"?>
<!-- Generator: Adobe Illustrator 17.1.0, SVG Export Plug-In . SVG Version: 6.00 Build 0)  -->
<!DOCTYPE svg PUBLIC "-//W3C//DTD SVG 1.1//EN" "http://www.w3.org/Graphics/SVG/1.1/DTD/svg11.dtd">
<svg version="1.1" id="レイヤー_1" xmlns="http://www.w3.org/2000/svg" xmlns:xlink="http://www.w3.org/1999/xlink" x="0px"
	 y="0px" viewBox="0 0 100 100" enable-background="new 0 0 100 100" xml:space="preserve">
<circle fill="#29ABE2" cx="50" cy="50" r="50"/>
<path fill="#FFFFFF" d="M75,34.493c-1.84,0.816-3.817,1.367-5.892,1.615c2.118-1.27,3.745-3.28,4.51-5.675
	c-1.982,1.176-4.177,2.029-6.514,2.489c-1.871-1.994-4.537-3.24-7.488-3.24c-5.665,0-10.258,4.593-10.258,10.258
	c0,0.804,0.091,1.587,0.266,2.338c-8.525-0.428-16.084-4.512-21.144-10.718c-0.883,1.515-1.389,3.277-1.389,5.157
	c0,3.559,1.811,6.699,4.563,8.538c-1.682-0.053-3.263-0.515-4.646-1.283c-0.001,0.043-0.001,0.086-0.001,0.129
	c0,4.97,3.536,9.116,8.229,10.059c-0.861,0.234-1.767,0.36-2.703,0.36c-0.661,0-1.304-0.064-1.93-0.184
	c1.305,4.075,5.094,7.041,9.583,7.124c-3.511,2.751-7.934,4.391-12.74,4.391c-0.828,0-1.645-0.049-2.447-0.143
	c4.54,2.911,9.932,4.609,15.725,4.609c18.868,0,29.186-15.631,29.186-29.187c0-0.445-0.01-0.887-0.03-1.327
	C71.886,38.357,73.625,36.55,75,34.493z"/>
</svg>
