<?xml version="1.0" encoding="utf-8"?>
<!-- Generator: Adobe Illustrator 17.1.0, SVG Export Plug-In . SVG Version: 6.00 Build 0)  -->
<!DOCTYPE svg PUBLIC "-//W3C//DTD SVG 1.1//EN" "http://www.w3.org/Graphics/SVG/1.1/DTD/svg11.dtd">
<svg version="1.1" id="レイヤー_1" xmlns="http://www.w3.org/2000/svg" xmlns:xlink="http://www.w3.org/1999/xlink" x="0px"
	 y="0px" viewBox="0 0 100 100" enable-background="new 0 0 100 100" xml:space="preserve">
<circle fill="#35559F" cx="50" cy="50" r="50"/>
<path id="White_2_" fill="#FFFFFF" d="M70.461,27H29.539C28.136,27,27,28.136,27,29.539v40.922C27,71.863,28.136,73,29.539,73H51.57
	V55.186h-5.995v-6.942h5.995v-5.12c0-5.941,3.629-9.177,8.929-9.177c2.539,0,4.721,0.189,5.357,0.274v6.209l-3.676,0.002
	c-2.883,0-3.441,1.37-3.441,3.38v4.432h6.875l-0.895,6.942h-5.979V73h11.722C71.863,73,73,71.863,73,70.461V29.539
	C73,28.136,71.863,27,70.461,27z"/>
</svg>
